PathFileType	4	(X/Y/Z)	C:\Users\Basilio\Documents\Thesis Gigler\squatting_fais\c3dfiles\058\SLS_back_pre1\markers_experimental.trc
DataRate	CameraRate	NumFrames	NumMarkers	Units	OrigDataRate	OrigDataStartFrame	OrigNumFrames
200.000000	200.000000	4	60	mm	200.000000	759	1215
Frame#	Time	FHD			LBHD			RBHD			C7			T10			CLAV			LSHO			LUUPA			LMUPA			LDUPA			LLEP			LMEP			LUL			LRFIN			RSHO			RUPA1			RMUPA			RDUPA			RLEP			RMEP			RRAD			RUL			RUFIN			LASI			RASI			USACR			LSACR			RSACR			LTHI1			LTHI2			LTHI3			LTHI4			LLFC			LMFC			LTIB1			LTIB2			LTIB3			LTIB4			LLMAL			LMMAL			LHEE			LMT1			LMT5			RTHI			RTHI2			RTHI3			RTHI4			RLFC			RMFC			RTIB1			RTIB2			RTIB3			RTIB4			RLMAL			RMMAL			RHEE			RMT1			RMT2			RMT5			LMT2			
		X1	Y1	Z1	X2	Y2	Z2	X3	Y3	Z3	X4	Y4	Z4	X5	Y5	Z5	X6	Y6	Z6	X7	Y7	Z7	X8	Y8	Z8	X9	Y9	Z9	X10	Y10	Z10	X11	Y11	Z11	X12	Y12	Z12	X13	Y13	Z13	X14	Y14	Z14	X15	Y15	Z15	X16	Y16	Z16	X17	Y17	Z17	X18	Y18	Z18	X19	Y19	Z19	X20	Y20	Z20	X21	Y21	Z21	X22	Y22	Z22	X23	Y23	Z23	X24	Y24	Z24	X25	Y25	Z25	X26	Y26	Z26	X27	Y27	Z27	X28	Y28	Z28	X29	Y29	Z29	X30	Y30	Z30	X31	Y31	Z31	X32	Y32	Z32	X33	Y33	Z33	X34	Y34	Z34	X35	Y35	Z35	X36	Y36	Z36	X37	Y37	Z37	X38	Y38	Z38	X39	Y39	Z39	X40	Y40	Z40	X41	Y41	Z41	X42	Y42	Z42	X43	Y43	Z43	X44	Y44	Z44	X45	Y45	Z45	X46	Y46	Z46	X47	Y47	Z47	X48	Y48	Z48	X49	Y49	Z49	X50	Y50	Z50	X51	Y51	Z51	X52	Y52	Z52	X53	Y53	Z53	X54	Y54	Z54	X55	Y55	Z55	X56	Y56	Z56	X57	Y57	Z57	X58	Y58	Z58	X59	Y59	Z59	X60	Y60	Z60	

760	3.795	-142.5263824462891	1656.211059570313	-659.9076538085939	-299.3115844726563	1610.7626953125	-738.4800415039064	-126.6384506225586	1659.08837890625	-803.461120605469	-327.9065856933594	1463.37646484375	-744.7945556640626	-397.5048217773439	1171.666625976563	-726.2964477539064	-178.9119720458985	1395.454223632813	-727.0768432617189	-192.3484954833985	1451.558227539063	-877.8841552734377	-40.38167190551759	1392.050659179688	-979.9719238281252	-18.33202934265137	1429.202514648438	-952.7747802734377	28.69594192504884	1394.060668945313	-967.7798461914065	102.6671142578125	1400.187744140625	-946.8839111328127	106.9194946289063	1343.741333007813	-913.6712036132815	367.5572509765626	1445.711181640625	-907.8823852539065	461.1016235351564	1446.048583984375	-825.5312500000002	-206.5735473632813	1465.098876953125	-584.3794555664064	-48.77809143066408	1384.259399414063	-486.3162231445314	-28.20116996765137	1422.108276367188	-513.3594970703126	19.86803245544434	1392.988037109375	-494.0503540039064	86.58493804931642	1385.241577148438	-509.0816040039064	89.76612854003908	1327.104858398438	-561.5297241210939	342.3342590332032	1417.2607421875	-607.2044067382814	353.2322998046876	1429.7734375	-533.9685058593751	440.3821105957032	1451.122802734375	-605.5227661132814	-288.1859741210938	929.5079345703127	-866.8121337890627	-253.312240600586	938.881774902344	-630.1707153320314	-437.9356384277345	1060.222778320313	-717.3879394531251	-455.0735778808595	1029.97509765625	-741.9991455078126	-445.3970642089845	1031.254272460938	-684.9205932617189	-389.2899475097657	665.8548583984376	-947.8132934570315	-367.7723388671876	583.5112915039064	-958.386413574219	-320.9759826660157	577.0020141601564	-947.8411865234377	-402.1859436035157	534.5581054687501	-950.8692016601565	-427.0897827148439	454.2437438964845	-941.1492309570315	-376.5670166015626	416.893035888672	-825.4138793945315	-517.4149780273439	355.7789306640626	-894.976501464844	-572.9729614257814	412.7014770507814	-916.3117675781252	-566.4497070312501	368.7435913085938	-910.8350830078127	-635.1223754882814	340.5621643066407	-868.0608520507815	-824.8294067382815	366.5295410156251	-802.5853271484377	-785.728698730469	306.2614746093751	-741.8461914062501	-801.926452636719	404.527313232422	-729.3670654296876	-905.2666625976565	205.8532867431641	-748.6811523437501	-944.0167236328127	284.1212158203126	-812.2371215820315	-282.1911621093751	745.4902954101564	-566.8899536132814	-225.8088073730469	713.0931396484376	-584.0561523437501	-197.5661010742188	726.9742431640626	-593.1759643554689	-222.6811523437501	633.8914794921876	-611.5078735351564	-161.9612579345703	486.9659118652345	-664.2027587890626	-166.0504913330078	498.9274902343751	-795.5093994140627	-201.7494506835938	310.5292053222657	-771.3828735351565	-250.817123413086	244.3689880371094	-697.1611938476564	-231.4470825195313	229.8665466308594	-739.8781127929689	-267.8199462890626	199.5724487304688	-771.6199951171877	-356.4613647460938	119.0267715454102	-713.2264404296876	-335.6699829101563	134.7984161376953	-807.8929443359377	-437.8463745117189	103.2357711791992	-768.688415527344	-227.932113647461	55.01396942138673	-784.6964111328127	-222.5481719970704	60.77877426147462	-732.1390991210939	-272.9553222656251	35.62524795532227	-677.8213500976564	-924.707458496094	217.0957031250001	-790.7403564453127	
761	3.8	-142.8283233642578	1656.846557617188	-659.7259521484376	-299.4103393554688	1611.634643554688	-738.1784057617189	-127.2179107666016	1660.1337890625	-803.2271728515627	-328.1662597656251	1464.477905273438	-744.5059204101564	-397.7794189453126	1172.56787109375	-726.1935424804689	-179.3140106201172	1396.49609375	-726.8519287109376	-192.8759002685547	1452.635986328125	-877.6751098632815	-40.50349044799805	1393.044189453125	-979.786804199219	-18.70064926147461	1430.288940429688	-952.726989746094	28.36652946472169	1395.259887695313	-967.6643676757815	102.2165222167969	1401.383056640625	-946.7637329101565	107.3696212768555	1344.570190429688	-913.997497558594	367.2416381835938	1446.9755859375	-907.7349243164065	460.5191345214845	1447.3154296875	-825.3980102539065	-207.1167602539063	1465.90869140625	-584.3518676757814	-48.95672988891603	1385.118774414063	-486.3722229003907	-28.50190925598145	1422.948120117188	-513.2777099609376	19.63891792297364	1394.1455078125	-493.8538818359376	86.18800354003908	1386.314819335938	-508.9132385253907	89.40098571777345	1328.241455078125	-561.3792724609376	342.0865478515626	1418.30712890625	-607.1709594726564	352.7055664062501	1430.856689453125	-534.1998901367189	440.0149841308595	1451.974487304688	-606.0208740234376	-288.2613220214844	930.584167480469	-866.7564086914065	-253.3782653808594	939.8899536132815	-630.2277832031251	-438.1074829101564	1061.36328125	-717.3489379882814	-455.5494384765626	1031.076782226563	-741.7747192382814	-445.7976379394532	1032.113403320313	-684.8898315429689	-389.3494262695314	667.0769653320314	-947.9736328125002	-367.6942749023438	584.5820922851564	-958.547058105469	-320.8110656738282	578.0876464843751	-948.165466308594	-402.0152282714845	535.5145263671876	-951.0488891601565	-426.871551513672	455.6211547851564	-941.3846435546877	-376.5163879394532	417.2285156250001	-825.4410400390627	-516.7595825195314	356.9721984863282	-895.4248046875002	-572.8999023437501	413.8773498535157	-916.390319824219	-566.0982666015626	369.8520507812501	-911.057067871094	-634.7380371093751	341.4078063964844	-868.2041625976565	-824.4698486328127	367.1209716796876	-802.496520996094	-785.3364868164065	306.7833862304688	-741.6057739257814	-801.4387817382815	404.9710388183595	-729.3320922851564	-904.5465087890627	206.518783569336	-748.6083374023439	-943.308532714844	284.8591003417969	-812.0539550781252	-282.7117614746094	746.4184570312501	-566.5014038085939	-226.3176727294922	713.8999023437501	-583.6815795898439	-197.9319610595704	727.8191528320314	-592.9196777343751	-222.8982696533204	634.4291381835939	-611.2670288085939	-162.8167572021485	487.369110107422	-663.6567382812501	-166.4433898925782	499.2848205566407	-795.1652832031252	-201.778549194336	311.0280151367188	-771.0073242187502	-251.2795410156251	244.9165191650391	-696.6318359375001	-231.5664215087891	230.1884918212891	-739.5024414062501	-268.1908264160157	199.7236328125001	-771.1413574218752	-356.4802551269532	119.0383224487305	-713.0361938476564	-335.7093200683594	134.9140014648438	-807.6358032226565	-437.8601989746095	103.4164962768555	-768.4876708984377	-227.7110748291016	55.12567138671876	-784.6370849609377	-222.6187133789063	60.71010971069337	-731.9412231445314	-273.0224304199219	35.46476364135743	-677.7523193359376	-924.0874633789065	217.6893463134766	-790.4658813476565	
762	3.805	-143.5659942626953	1657.938598632813	-659.3901977539064	-299.9063110351563	1612.871826171875	-737.7817993164064	-127.6005249023438	1661.160888671875	-803.0372314453127	-328.6039123535157	1465.4931640625	-744.2202758789064	-397.9526367187501	1173.4638671875	-725.9540405273439	-179.557846069336	1397.6728515625	-726.7282714843751	-193.3151855468751	1453.674072265625	-877.4808349609377	-40.97568893432618	1394.1044921875	-979.6728515625002	-19.04989433288575	1431.448486328125	-952.5877685546877	27.8088779449463	1396.24072265625	-967.6186523437502	101.9391860961914	1402.613891601563	-946.7073974609377	106.1018676757813	1345.826049804688	-913.2496337890627	366.7728881835938	1448.233642578125	-907.6549072265627	460.2396240234376	1448.61083984375	-825.3132324218752	-207.2237854003907	1466.886474609375	-584.1268920898439	-49.22638320922853	1386.275024414063	-486.0760803222657	-29.00851631164551	1424.11669921875	-513.1872558593751	19.47917366027832	1395.290893554688	-493.5928649902345	85.96688079833986	1387.537353515625	-508.8028564453126	89.39701080322267	1329.54296875	-561.2192382812501	341.0172424316407	1419.683959960938	-606.5947875976564	352.6226501464844	1432.305297851563	-534.1505126953126	439.913787841797	1453.7470703125	-605.6994628906251	-288.6932373046876	931.4058837890627	-866.798034667969	-253.4230499267579	940.8858032226565	-630.1071777343751	-438.1029357910157	1062.064575195313	-717.3381958007814	-455.2070922851564	1031.827758789063	-741.9064941406251	-445.3585815429689	1033.111450195313	-684.9531250000001	-389.370086669922	668.1107788085939	-948.126647949219	-367.4092407226563	585.6538696289064	-958.9597778320315	-320.6515808105469	579.3295898437501	-948.4729003906252	-401.8694763183595	536.6240844726564	-951.3291625976565	-426.7709960937501	456.4934082031251	-941.6026611328127	-375.9237670898438	418.7087402343751	-825.7390747070315	-516.3758544921876	358.1178588867188	-895.6016845703127	-572.5561523437501	414.5897216796876	-916.5063476562502	-566.0017700195314	370.6720275878907	-911.022155761719	-634.0056762695314	342.0611572265626	-868.2513427734377	-824.068542480469	367.7340393066407	-802.3942871093752	-784.8237915039065	307.4716796875001	-741.4638671875001	-800.8796997070315	405.5825195312501	-729.3274536132814	-903.4980468750002	206.9343719482422	-748.5851440429689	-943.3604125976565	284.8664855957032	-811.7381591796877	-283.0128173828126	747.0187377929689	-566.4354858398439	-226.4386291503907	714.3589477539064	-583.5549316406251	-198.196273803711	728.3018798828126	-592.6692504882814	-223.2908630371094	635.0747070312501	-611.0268554687501	-163.5158233642578	487.8069763183595	-663.0971069335939	-166.9438018798828	499.6748046875001	-794.522644042969	-201.642807006836	311.4463806152344	-770.5457153320315	-251.4788208007813	245.0684661865235	-696.0639648437501	-231.8249053955079	230.5251464843751	-739.0692138671876	-268.2307128906251	199.9586486816407	-770.782653808594	-356.5752258300782	119.0846252441407	-712.9097900390626	-335.6285400390626	135.060531616211	-807.4140625000002	-437.8480529785157	103.409049987793	-768.4685668945315	-227.4918518066407	55.27676391601564	-784.5391235351565	-222.5700836181641	60.6402931213379	-731.8071289062501	-273.0954895019532	35.41012573242188	-677.7118530273439	-923.502380371094	218.1993560791016	-790.428894042969	
763	3.81	-143.7317657470703	1659.464233398438	-659.5744628906251	-300.6220703125001	1613.783569335938	-737.4513549804689	-127.9701232910157	1662.416748046875	-802.7233886718752	-328.9850158691407	1466.362915039063	-743.9116821289064	-398.1444702148439	1174.60546875	-725.8464965820314	-179.9729919433594	1398.609130859375	-726.5289306640626	-193.7015686035157	1454.803588867188	-877.2335205078127	-41.5477523803711	1395.309326171875	-979.485046386719	-19.6002311706543	1432.477172851563	-952.3811645507815	27.37098503112794	1397.41845703125	-967.406677246094	101.3618087768555	1403.707641601563	-946.5515136718752	105.5883560180664	1347.433837890625	-913.2261352539065	366.4777832031251	1449.391967773438	-907.6217041015627	459.766326904297	1449.972900390625	-825.1734619140627	-207.4397888183594	1468.1201171875	-583.7000732421876	-49.38847732543947	1387.20947265625	-485.9972534179689	-28.98317337036134	1425.003173828125	-512.7291259765626	19.09555435180664	1396.276977539063	-493.3429565429689	85.62532043457033	1388.826782226563	-508.5137939453126	89.02806091308595	1330.443359375	-560.9926147460939	340.7114562988282	1420.873779296875	-606.5546264648439	352.0953979492188	1433.364501953125	-533.9588012695314	439.0497436523439	1454.714599609375	-606.1755371093751	-288.5951843261719	932.6505126953127	-866.7194824218752	-253.4548950195313	941.5682373046877	-630.0762329101564	-438.3065185546876	1062.989868164063	-717.2416381835939	-455.4709777832032	1032.80908203125	-741.7756958007814	-445.6958618164064	1033.895629882813	-684.7268676757814	-389.2448730468751	669.2097167968751	-948.329284667969	-367.7198181152344	586.9272460937501	-959.1455688476565	-320.5691528320313	580.4982299804689	-948.8528442382815	-401.6368713378907	537.6623535156251	-951.4963989257815	-426.4571838378907	457.7911682128907	-941.8640747070315	-375.4243469238282	419.5635681152345	-826.137878417969	-515.7257690429689	359.1130981445313	-895.9976806640627	-572.2718505859376	415.751190185547	-916.6174316406252	-565.3807373046876	371.6554260253907	-911.385437011719	-633.8356323242189	343.0960388183594	-868.4373779296877	-823.7341918945315	368.4542236328126	-802.3100585937502	-784.1294555664065	308.3208618164063	-741.3987426757814	-800.5316162109377	406.0910949707032	-729.2923583984376	-903.1118774414065	207.7516174316407	-748.3726806640626	-942.7147216796877	285.3769226074219	-811.5535278320315	-283.3215637207032	747.6237792968751	-566.3176269531251	-226.9929199218751	715.0345458984376	-583.1899414062501	-198.6169433593751	728.9209594726564	-592.2965087890626	-223.6396179199219	635.8158569335939	-610.5492553710939	-163.9466705322266	488.0743713378907	-662.5594482421876	-167.3610534667969	500.1364746093751	-793.885437011719	-201.9575653076172	311.6812744140626	-770.019226074219	-251.983627319336	245.3844146728516	-695.7755126953126	-232.2881622314454	230.8500518798829	-738.7096557617189	-268.3675842285157	200.0824279785157	-770.4954833984377	-356.6705017089844	119.1086120605469	-712.7744140625001	-335.6163024902344	135.1951141357422	-807.2669067382815	-437.8675537109376	103.4006042480469	-768.442077636719	-227.4881134033204	55.285213470459	-784.4538574218752	-222.5555267333985	60.59496307373048	-731.8027343750001	-273.1345214843751	35.38194274902344	-677.6484985351564	-923.0794677734377	218.8440093994141	-790.1441650390627	
